# xmcd
#
# Track frame offsets: 
#        150
#        10364
#        23029
#        36989
#        51727
#        69764
#        90926
#        105944
#        122770
#        140599
#        153203
#        169586
#        184882
#
# Disc length: 2843 seconds
#
# Revision: 0
# Processed by: cddbd v1.5.2PL0 Copyright (c) Steve Scherf et al.
# Submitted via: ExactAudioCopy v0.95b3
#
DISCID=a10b190d
DTITLE=Sir Douglas Quintet  - The Complete Mercury Recordings [CD3]
DYEAR=1900
DGENRE=
TTITLE0=Texas Me
TTITLE1=Preach What You Live, Live What You Preach
TTITLE2=She's Huggin' You, But She's Lookin' At Me
TTITLE3=Keep Your Soul
TTITLE4=Papa Ain't Salty
TTITLE5=Stoned Faces Don't Lie
TTITLE6=Me And My Destiny
TTITLE7=Wasted Days, Wasted Nights
TTITLE8=The Railpak Dun Done In The Del Monte
TTITLE9=Oh Lord, Please Let It Rain In Texas
TTITLE10=The Gypsy
TTITLE11=Michoacan
TTITLE12=Westside Blues Again
EXTD=
EXTT0=
EXTT1=
EXTT2=
EXTT3=
EXTT4=
EXTT5=
EXTT6=
EXTT7=
EXTT8=
EXTT9=
EXTT10=
EXTT11=
EXTT12=
PLAYORDER=
